<svg xmlns="http://www.w3.org/2000/svg" viewBox="485 285 107 76"><path fill="#7a5d24" d="M556.461,343.692c-2.797-0.602-6.895-8.964-0.63-7.949c-1.261,2.404,2.928,5.547,5.018,6.072
			c2.714,0.682,11.89,0.476,13.291,1.554c0.17,0.131,0.509,0.884,0.339,1.168c-0.422,0.703-4.822,2.058-4.828,2.712
			c1.1,1.072,2.817,2.985,1.387,4.418c-7.735-0.028-14.465-3.051-21.276-6.298c0.049,4.716-7.176,1.099-9.503-0.122
			c-2.573-1.351-4.527-3.771-7.606-4.096c-0.864,3.835-7.931,12.274-12.092,8.84c-0.957-0.79-0.455-2.024-0.923-2.948
			c-1.84,1.204-6.872,4.973-9.017,3.57c-1.083-0.708,0.465-2.621,0.785-3.433l4.252-5.996c-1.839,0.466-3.57,1.472-5.424,1.896
			c-6.051,1.383-9.63-0.181-15.071-2.525c0.024-0.907,14.814-6.605,16.623-7.222c1.02-0.348,5.354-1.153,5.55-1.36
			c0.121-0.129-0.682-1.094-0.378-1.613c0.044-0.074,0.872-0.326,1.22-0.66c1.193-1.148,2.269-2.778,3.965-3.166l-1.043,2.51
			c3.728,0.486,1.246,2.681-1.256,2.518l1.255,1.249c-8.07-0.537-15.091,4.911-22.594,7.125c-0.741,0.793,2.465,1.52,2.818,1.569
			c7.795,1.076,9.682-2.651,15.669-4.217c2.081-0.544,3.175-0.388,3.153,2.1c-0.022,2.549-6.259,6.502-6.993,9.327
			c0.567,0.559,6.237-4.052,6.974-4.123c1.702-0.162,1.371,3.369,2.215,3.954c1.115,0.773,5.469-2.829,6.281-3.816
			c2.87-3.491,0.964-6.897,7.468-5.352c2.745,0.652,8.249,3.966,10.418,4.239c0.845,0.106,1.596-0.445,2.731-0.265
			c2.565,0.407,8.76,3.813,11.932,4.841c1.997,0.647,4.266,1.725,6.379,1.154c-0.91-0.763-3.724-1.109-2.552-2.946
			c0.916-1.435,3.751-1.473,5.303-1.857c0.71-0.176,1.214,0.415,1.017-0.848C567.099,343.07,560.349,344.529,556.461,343.692z"/><path fill="#7a5d24" d="M567.132,312.302c0.525,0.465,4.32-2.807,4.86-2.89c0.479-0.074,0.823,0.246,0.951,0.652
			c0.847,2.698-5.781,7.864-7.484,9.77c4.153-1.042,8.384-2.855,12.744-2.946c1.346-0.028,3.119-0.184,3.781,1.287
			c1.981,4.402-9.182,8.221-12.339,8.78c-0.142,1.21,1.236,0.968,1.511,2.066c0.771,3.081-4.94,5.128-7.147,5.898
			c-1.241,0.433-4.829,1.597-5.931,1.643c-1.349,0.057-2.124-1.156-0.878-1.757c1.463-0.705,3.911-0.96,5.553-1.561
			c0.957-0.35,7.986-2.698,6.469-4.198c-1.185-0.166-8.336,0.663-5.739-1.984c1.204-1.228,9.895-3.55,12.303-4.638
			c1.337-0.604,4.353-1.824,4.73-3.223c0.247-0.918-0.479-0.548-1.003-0.677c-1.713-0.422-5.227,0.21-7.026,0.601
			c-1.855,0.403-9.824,3.379-10.577,3.224c-0.267-0.055-0.555-0.427-0.455-0.851c0.411-1.736,9.038-7.164,9.861-10.026
			l-12.973,6.688c1.074-2.454,3.613-3.504,5.446-5.221c4.676-4.379,9.061-9.384,11.707-15.28c-2.903,2.426-5.653,5.185-8.822,7.285
			c-7.55,5.004-13.036,5.974-19.426,13.634c-1.67,2.002-2.712,4.56-4.587,6.293c-0.71,0.657-5.559,3.883-6.295,4.169
			c-1.107,0.431-0.372-1.388-0.638-1.653c-0.068-0.068-1.168,0.007-1.886-0.409c-1.314-0.762-2.354-3.376-3.735-4.22
			c-4.149-2.534-5.022,2.305-7.33,4.613c0.634-2.322,2.183-6.779,4.785-7.134c5.052-0.69,7.365,1.853,8.809,6.296
			c1.475-1.372,3.637-2.333,5.042-3.746c1.793-1.803,2.991-4.603,4.797-6.502c6.549-6.888,13.754-8.389,21.051-13.264
			c1.537-1.027,8.691-7.437,9.286-7.445c0.462-0.007,0.629,0.862,0.551,1.369c-0.118,0.765-1.867,4.234-2.364,5.179
			C572.753,305.899,569.978,309.169,567.132,312.302z"/><path fill="#7a5d24" d="M527.373,331.974l-2.923-1.462C525.099,328.892,527.975,331.384,527.373,331.974z"/></svg>